<svg xmlns="http://www.w3.org/2000/svg" version="1.1" xmlns:xlink="http://www.w3.org/1999/xlink" xmlns:svgjs="http://svgjs.dev/svgjs" width="1000" height="1000"><g clip-path="url(#SvgjsClipPath1306)"><rect width="1000" height="1000" fill="#ffffff"></rect><g transform="matrix(1.3671875,0,0,1.3671875,150,150)"><svg xmlns="http://www.w3.org/2000/svg" version="1.1" xmlns:xlink="http://www.w3.org/1999/xlink" xmlns:svgjs="http://svgjs.dev/svgjs" width="512" height="512"><svg xmlns="http://www.w3.org/2000/svg" version="1.1" xmlns:xlink="http://www.w3.org/1999/xlink" width="512" height="512" x="0" y="0" viewBox="0 0 512.012 512.012" fill="currentColor" style="enable-background:new 0 0 512 512" xml:space="preserve" class="">
    <g>
        <path d="M492.283 448.02c-7.427 2.465-14.47 5.639-21.28 8.708-12.013 5.414-23.36 10.528-34.244 10.528-6.966 0-14.896-4.058-23.293-8.354-10.67-5.459-22.763-11.646-36.958-11.646-14.194 0-26.288 6.188-36.957 11.646-8.396 4.296-16.327 8.354-23.293 8.354s-14.896-4.058-23.293-8.354c-10.67-5.459-22.763-11.646-36.958-11.646s-26.288 6.188-36.958 11.646c-8.396 4.296-16.327 8.354-23.293 8.354s-14.896-4.058-23.293-8.354c-10.669-5.459-22.763-11.646-36.958-11.646s-26.288 6.188-36.958 11.646c-8.396 4.296-16.327 8.354-23.292 8.354-10.884 0-22.231-5.114-34.245-10.527-6.811-3.069-13.853-6.243-21.28-8.708-7.86-2.611-16.352 1.647-18.962 9.51-2.61 7.862 1.648 16.352 9.51 18.962 5.961 1.979 12.006 4.703 18.406 7.587 13.705 6.176 29.239 13.177 46.571 13.177 14.195 0 26.288-6.188 36.957-11.646 8.396-4.296 16.327-8.354 23.293-8.354s14.896 4.058 23.293 8.354c10.669 5.459 22.763 11.646 36.958 11.646s26.288-6.188 36.958-11.646c8.396-4.296 16.327-8.354 23.293-8.354s14.896 4.058 23.293 8.354c10.67 5.459 22.763 11.646 36.958 11.646 14.194 0 26.288-6.188 36.957-11.646 8.396-4.296 16.327-8.354 23.293-8.354s14.896 4.058 23.293 8.354c10.67 5.459 22.763 11.646 36.958 11.646 17.332 0 32.865-7 46.57-13.177 6.4-2.884 12.444-5.608 18.405-7.587 7.862-2.61 12.12-11.1 9.511-18.962-2.611-7.863-11.103-12.122-18.962-9.511zM436.758 292.256c-6.966 0-14.896-4.058-23.293-8.354-10.67-5.459-22.763-11.646-36.958-11.646-14.194 0-26.288 6.188-36.957 11.646-4.538 2.322-8.937 4.567-13.124 6.147l7.399 29.202c6.989-2.299 13.413-5.585 19.389-8.642 8.396-4.296 16.327-8.354 23.293-8.354s14.896 4.058 23.293 8.354c10.67 5.459 22.763 11.646 36.958 11.646 17.332 0 32.865-7 46.57-13.177 6.4-2.884 12.444-5.608 18.405-7.587 7.862-2.61 12.12-11.1 9.511-18.962-2.61-7.862-11.103-12.122-18.962-9.51-7.427 2.465-14.47 5.639-21.28 8.708-12.012 5.415-23.36 10.529-34.244 10.529z" fill="#000000" opacity="1" data-original="#000000" class=""></path>
        <path d="M162.694 209.386c2.695.718 5.203 1.396 7.561 2.033l1.47.397c27.481 7.418 44.182 35.909 37.23 63.512l-18.005 71.487c1.76.865 3.483 1.676 4.806 2.206 2.585-1.036 6.702-3.142 9.628-4.64 12.323-6.305 29.198-14.939 50.622-14.939 21.423 0 38.298 8.634 50.62 14.938.912.467 1.943.993 3.004 1.527l-17.882-70.578c-6.951-27.603 9.75-56.094 37.23-63.512l1.439-.389c2.367-.64 4.885-1.32 7.592-2.041 85.465-22.784 140.688-96.237 140.688-187.13 0-4.142-3.357-7.5-7.5-7.5s-7.5 3.358-7.5 7.5c0 3.488-1.41 8.799-13.605 14.626-16.627 7.945-44.629 12.565-74.274 17.456-50.521 8.335-106.542 17.579-125.467 47.37-18.924-29.791-74.945-39.035-125.467-47.37-29.646-4.891-57.647-9.511-74.274-17.456-12.195-5.827-13.605-11.138-13.605-14.626a7.5 7.5 0 0 0-15 0c.001 90.892 55.224 164.345 140.689 187.129zM492.283 360.205c-7.427 2.465-14.47 5.639-21.28 8.708-12.013 5.414-23.36 10.528-34.244 10.528-6.966 0-14.896-4.058-23.293-8.354-10.67-5.459-22.763-11.646-36.958-11.646-14.194 0-26.288 6.188-36.957 11.646-8.396 4.296-16.327 8.354-23.293 8.354s-14.896-4.058-23.293-8.354c-10.67-5.459-22.763-11.646-36.958-11.646s-26.288 6.188-36.958 11.646c-8.396 4.296-16.327 8.354-23.293 8.354s-14.896-4.058-23.293-8.354c-10.669-5.459-22.763-11.646-36.958-11.646s-26.288 6.188-36.958 11.646c-8.396 4.296-16.327 8.354-23.292 8.354-10.884 0-22.231-5.114-34.245-10.527-6.811-3.069-13.853-6.243-21.28-8.708-7.86-2.609-16.352 1.647-18.962 9.51-2.61 7.862 1.648 16.352 9.51 18.962 5.961 1.979 12.006 4.703 18.406 7.587 13.705 6.176 29.239 13.177 46.571 13.177 14.195 0 26.288-6.188 36.957-11.646 8.396-4.296 16.327-8.354 23.293-8.354s14.896 4.058 23.293 8.354c10.669 5.459 22.763 11.646 36.958 11.646s26.288-6.188 36.958-11.646c8.396-4.296 16.327-8.354 23.293-8.354s14.896 4.058 23.293 8.354c10.67 5.459 22.763 11.646 36.958 11.646 14.194 0 26.288-6.188 36.957-11.646 8.396-4.296 16.327-8.354 23.293-8.354s14.896 4.058 23.293 8.354c10.67 5.459 22.763 11.646 36.958 11.646 17.332 0 32.865-7 46.57-13.177 6.4-2.884 12.444-5.608 18.405-7.587 7.862-2.61 12.12-11.1 9.511-18.962-2.611-7.863-11.103-12.123-18.962-9.511z" fill="#000000" opacity="1" data-original="#000000" class=""></path>
        <path d="M10.278 301.492c5.961 1.979 12.006 4.703 18.406 7.587 13.705 6.176 29.239 13.177 46.571 13.177 14.195 0 26.288-6.188 36.957-11.646 8.396-4.296 16.327-8.354 23.293-8.354s14.896 4.058 23.293 8.354c2.948 1.508 6.01 3.069 9.19 4.543l7.485-29.716c-.996-.503-1.999-1.016-3.01-1.533-10.669-5.459-22.763-11.646-36.958-11.646s-26.288 6.188-36.958 11.646c-8.396 4.296-16.327 8.354-23.292 8.354-10.884 0-22.231-5.114-34.245-10.527-6.811-3.069-13.853-6.243-21.28-8.708-7.86-2.611-16.352 1.647-18.962 9.51-2.61 7.859 1.648 16.349 9.51 18.959z" fill="#000000" opacity="1" data-original="#000000" class=""></path>
    </g>
</svg></svg></g></g><defs><clipPath id="SvgjsClipPath1306"><rect width="1000" height="1000" x="0" y="0" rx="250" ry="250"></rect></clipPath></defs></svg>